<svg width="58" height="64" viewBox="0 0 58 64" fill="none" xmlns="http://www.w3.org/2000/svg">
<path d="M5.92018 57.604L0.78418 0.00195312H57.2162L52.0762 57.596L28.9642 64L5.92018 57.604Z" fill="#E44D26"/>
<path d="M47.674 53.9279L52.068 4.71191H29V59.1059L47.674 53.9279Z" fill="#F16529"/>
<path d="M28.9762 11.7759H11.2842L13.1902 33.1399H29.0002V26.0759H19.6522L19.0062 18.8419H29.0002V11.7759H28.9762ZM29.0002 44.3999L28.9702 44.4079L21.1022 42.2839L20.6022 36.6499H13.5062L14.4962 47.7419L28.9682 51.7419L29.0002 51.7319V44.3999Z" fill="#EBEBEB"/>
<path d="M28.9762 33.1399H37.6762L36.8762 42.2999L28.9962 44.4259V51.7759L43.4802 47.7619L45.4202 26.0719H29.0002L28.9762 33.1399ZM46.5042 13.6719L46.6722 11.7759H28.9722V18.8399H46.0362L46.1762 17.2519L46.5042 13.6719Z" fill="white"/>
</svg>
