<svg width="60" height="73" viewBox="0 0 60 73" fill="none" xmlns="http://www.w3.org/2000/svg">
<path d="M56.1798 9.53898C49.4767 -0.0469576 36.2579 -2.8829 26.6954 3.21085L9.89072 13.9218C7.62959 15.3507 5.6908 17.2349 4.19779 19.4542C2.70477 21.6736 1.69026 24.1795 1.21884 26.8124C0.398532 31.2655 1.10166 35.8359 3.18759 39.8437C1.75853 42.0245 0.785859 44.4721 0.328219 47.039C-0.150689 49.7327 -0.0863885 52.4949 0.517343 55.1634C1.12108 57.8319 2.25206 60.3528 3.84384 62.578C10.5235 72.1405 23.7657 74.9999 33.3048 68.9062L50.1095 58.1952C52.3706 56.7663 54.3094 54.8822 55.8024 52.6628C57.2954 50.4435 58.3099 47.9375 58.7813 45.3046C59.6017 40.8515 58.8985 36.2577 56.8126 32.2734C58.2417 30.0925 59.2143 27.6449 59.672 25.078C60.6563 19.6405 59.3907 14.039 56.1563 9.53898" fill="#FF3E00"/>
<path d="M25.0549 63.4688C22.4127 64.1547 19.6237 64.0147 17.0635 63.0677C14.5032 62.1207 12.2945 60.4121 10.7346 58.1719C9.62424 56.6122 8.89169 54.8157 8.59476 52.9243C8.29783 51.0329 8.44466 49.0984 9.02364 47.2734L9.32833 46.2891L10.1955 46.9219C12.1877 48.3984 14.4143 49.5 16.758 50.2031L17.3908 50.3906L17.344 51.0234C17.2644 51.9137 17.5055 52.803 18.0236 53.5313C18.9611 54.9141 20.6955 55.5469 22.3361 55.125C22.6877 55.0313 23.0393 54.8906 23.3674 54.6563L40.1486 43.9688C40.5624 43.7101 40.9178 43.3681 41.1922 42.9646C41.4666 42.5611 41.6539 42.1049 41.7424 41.625C41.8277 41.1376 41.8157 40.6382 41.707 40.1555C41.5984 39.6728 41.3954 39.2164 41.1096 38.8125C40.1486 37.4063 38.4143 36.7969 36.7736 37.2188C36.4221 37.3125 36.0705 37.4531 35.7658 37.6641L29.344 41.7422C28.2893 42.4219 27.1408 42.9141 25.9221 43.2422C23.2832 43.9229 20.4993 43.7803 17.9438 42.8335C15.3883 41.8868 13.1835 40.1811 11.6252 37.9453C10.6681 36.6058 9.9885 35.0885 9.62625 33.4825C9.26401 31.8766 9.22647 30.2144 9.51583 28.5938C9.80252 27.0124 10.4153 25.5081 11.3151 24.1765C12.2149 22.8449 13.3821 21.7152 14.7424 20.8594L31.5236 10.125C32.5783 9.46875 33.7502 8.95313 34.9455 8.625C37.5901 7.94147 40.3807 8.08501 42.9412 9.03629C45.5017 9.98758 47.709 11.7009 49.2658 13.9453C50.3762 15.505 51.1087 17.3015 51.4056 19.1929C51.7026 21.0843 51.5558 23.0188 50.9768 24.8438L50.6721 25.8047L49.8049 25.1719C47.8127 23.7188 45.5861 22.5938 43.2424 21.8906L42.6096 21.7031L42.6565 21.0938C42.7502 20.2031 42.4924 19.3125 41.9768 18.5859C41.0393 17.2031 39.3049 16.5703 37.6643 16.9922C37.3127 17.0859 36.9611 17.2266 36.633 17.4609L19.8518 28.125C19.008 28.6406 18.4455 29.4844 18.258 30.4688C18.094 31.4531 18.3283 32.4609 18.8908 33.2813C19.8518 34.6641 21.5861 35.2969 23.2268 34.875C23.5783 34.7813 23.9299 34.6406 24.258 34.4063L30.6565 30.3281C33.5514 28.6137 36.9867 28.0548 40.2759 28.763C43.565 29.4713 46.4658 31.3945 48.3986 34.1484C49.3557 35.488 50.0353 37.0053 50.3976 38.6112C50.7598 40.2172 50.7974 41.8793 50.508 43.5C50.2172 45.0828 49.6003 46.5878 48.6965 47.9194C47.7926 49.2509 46.6217 50.3798 45.258 51.2344L28.4768 61.9453C27.4221 62.6484 26.2502 63.1172 25.0549 63.4453" fill="white"/>
</svg>
