<svg xmlns="http://www.w3.org/2000/svg" viewBox="0 0 700.96 68.94"><title>primesystems-black</title><g id="Ebene_2" data-name="Ebene 2"><g id="grayscale"><path d="M146.34,29.44c0,11.18-8.1,17.93-21.45,17.93h-14.1V63.94h-5.55V11.44h19.65C138.24,11.44,146.34,18.19,146.34,29.44Zm-5.55,0c0-8.4-5.55-13.2-16-13.2H110.79V42.49h13.95C135.24,42.49,140.79,37.69,140.79,29.44Z" fill="#1c1d1f"/><path d="M194.19,63.94l-12-16.87a37.41,37.41,0,0,1-4.2.22h-14.1V63.94h-5.55V11.44H178c13.35,0,21.45,6.75,21.45,18,0,8.25-4.35,14-12,16.5l12.83,18Zm-.3-34.5c0-8.4-5.55-13.2-16-13.2h-14V42.57h14C188.34,42.57,193.89,37.69,193.89,29.44Z" fill="#1c1d1f"/><path d="M212.57,11.44h5.55v52.5h-5.55Z" fill="#1c1d1f"/><path d="M289.74,11.44v52.5h-5.33v-42L263.79,57.27h-2.62l-20.63-35.1V63.94h-5.32V11.44h4.57l22.8,38.93,22.57-38.93Z" fill="#1c1d1f"/><path d="M344,59.14v4.8H306.84V11.44h36v4.8H312.39V34.92h27.15v4.72H312.39v19.5Z" fill="#1c1d1f"/><path d="M374.86,57.86,376.59,55c3.6,3.75,10.27,6.6,17.32,6.6,10.5,0,15.15-4.57,15.15-10.27,0-15.75-32.77-6.3-32.77-25.65,0-7.43,5.7-13.95,18.6-13.95a28.2,28.2,0,0,1,15.82,4.72l-1.43,3.08a25.93,25.93,0,0,0-14.39-4.43c-10.2,0-14.78,4.73-14.78,10.5,0,15.75,32.77,6.45,32.77,25.5C412.88,58.54,407,65,394,65,386.19,65,378.69,62.06,374.86,57.86Z" fill="#1c1d1f"/><path d="M439.06,46.54V64.61h-3.83V46.54L414.09,12.11h4.19l19,30.9,19-30.9h4Z" fill="#1c1d1f"/><path d="M461.41,57.86,463.14,55c3.6,3.75,10.27,6.6,17.32,6.6,10.5,0,15.15-4.57,15.15-10.27,0-15.75-32.77-6.3-32.77-25.65,0-7.43,5.69-13.95,18.59-13.95a28.2,28.2,0,0,1,15.83,4.72l-1.43,3.08a25.94,25.94,0,0,0-14.4-4.43c-10.19,0-14.77,4.73-14.77,10.5,0,15.75,32.77,6.45,32.77,25.5,0,7.43-5.92,13.88-18.9,13.88C472.74,65,465.24,62.06,461.41,57.86Z" fill="#1c1d1f"/><path d="M519.83,15.56H500.94V12.11h41.62v3.45h-18.9V64.61h-3.83Z" fill="#1c1d1f"/><path d="M586.36,61.16v3.45H550.13V12.11h35.1v3.45H554v20.7h28v3.38H554V61.16Z" fill="#1c1d1f"/><path d="M648.08,64.61,648,19.69l-22,38h-1.87l-22-37.8V64.61h-3.75V12.11h3.23l23.47,40.58,23.48-40.58h3.15l.07,52.5Z" fill="#1c1d1f"/><path d="M662.93,57.86,664.66,55c3.6,3.75,10.27,6.6,17.32,6.6,10.5,0,15.15-4.57,15.15-10.27,0-15.75-32.77-6.3-32.77-25.65,0-7.43,5.7-13.95,18.6-13.95a28.2,28.2,0,0,1,15.82,4.72l-1.42,3.08A26,26,0,0,0,683,15.11c-10.2,0-14.78,4.73-14.78,10.5,0,15.75,32.78,6.45,32.78,25.5C701,58.54,695,65,682.06,65,674.26,65,666.76,62.06,662.93,57.86Z" fill="#1c1d1f"/><path d="M31.19,0A34.47,34.47,0,0,0,0,19.79,30.36,30.36,0,1,1,24.65,67.85c-.86,0-1.71-.06-2.55-.13A34.47,34.47,0,1,0,31.19,0Z" fill="#161616" fill-rule="evenodd"/><path d="M24.21,18.19a20.71,20.71,0,0,0-5.2.69A17.92,17.92,0,0,1,21,18.77,17.18,17.18,0,1,1,3.85,37.28c0,.44-.07.88-.07,1.34A20.43,20.43,0,1,0,24.21,18.19Z" fill="#595959" fill-rule="evenodd"/></g></g></svg>