<svg width="288" height="112" viewBox="0 0 288 112" fill="none" xmlns="http://www.w3.org/2000/svg">
<g filter="url(#filter0_d_811_8)">
<rect x="4" width="280" height="104" rx="12" fill="#0F092B"/>
</g>
<line x1="110.5" x2="110.5" y2="104" stroke="#1F1C3B"/>
<path d="M59.5 87C78.5538 87 94 71.5538 94 52.5C94 33.4462 78.5538 18 59.5 18C40.4462 18 25 33.4462 25 52.5C25 71.5538 40.4462 87 59.5 87Z" fill="#1F1C3B"/>
<path d="M69.0972 57.5537C70.015 55.9638 69.4703 53.9309 67.8805 53.013C66.2906 52.0951 64.2577 52.6398 63.3398 54.2297L54.1998 70.0606C53.2819 71.6505 53.8266 73.6834 55.4165 74.6013C57.0063 75.5192 59.0393 74.9745 59.9572 73.3846L69.0972 57.5537Z" fill="#F6005B"/>
<path d="M61.7124 53.8407C62.6303 52.2508 62.0856 50.2179 60.4958 49.3C58.9059 48.3821 56.873 48.9268 55.9551 50.5167L55.1246 51.9551C54.2067 53.545 54.7514 55.5779 56.3413 56.4958C57.9311 57.4137 59.964 56.869 60.8819 55.2791L61.7124 53.8407Z" fill="#F6005B"/>
<path d="M63.5595 34.2027C64.4774 32.6128 63.9327 30.5799 62.3429 29.662C60.753 28.7441 58.7201 29.2888 57.8022 30.8787L48.6622 46.7096C47.7443 48.2995 48.289 50.3324 49.8789 51.2503C51.4687 52.1682 53.5016 51.6235 54.4195 50.0336L63.5595 34.2027Z" fill="#F6005B"/>
<path d="M129.88 66V39.252C130.156 39.252 130.432 39.252 130.708 39.252C130.984 39.252 131.26 39.252 131.536 39.252C131.812 39.252 132.088 39.252 132.364 39.252C132.808 39.252 133.444 39.228 134.272 39.18C135.112 39.132 136.012 39.084 136.972 39.036C137.944 38.988 138.844 38.964 139.672 38.964C144.208 38.964 147.532 40.098 149.644 42.366C151.756 44.634 152.812 47.832 152.812 51.96C152.812 54.996 152.278 57.588 151.21 59.736C150.142 61.872 148.6 63.504 146.584 64.632C144.568 65.748 142.132 66.3 139.276 66.288C137.968 66.264 136.726 66.21 135.55 66.126C134.386 66.042 133.288 66 132.256 66C131.992 66 131.728 66 131.464 66C131.2 66 130.936 66 130.672 66C130.408 66 130.144 66 129.88 66ZM136.612 61.068C136.96 61.176 137.41 61.254 137.962 61.302C138.514 61.338 139.084 61.356 139.672 61.356C140.92 61.344 142.006 61.026 142.93 60.402C143.866 59.778 144.586 58.818 145.09 57.522C145.606 56.226 145.864 54.564 145.864 52.536C145.864 50.388 145.63 48.678 145.162 47.406C144.694 46.122 143.98 45.198 143.02 44.634C142.072 44.07 140.872 43.788 139.42 43.788C138.976 43.788 138.478 43.818 137.926 43.878C137.374 43.926 136.936 43.98 136.612 44.04V61.068ZM165.765 66.288C162.525 66.288 160.053 65.37 158.349 63.534C156.645 61.686 155.793 59.136 155.793 55.884C155.793 53.94 156.189 52.2 156.981 50.664C157.773 49.128 158.913 47.916 160.401 47.028C161.901 46.14 163.713 45.696 165.837 45.696C166.905 45.696 167.937 45.822 168.933 46.074C169.929 46.314 170.823 46.74 171.615 47.352C172.407 47.952 173.043 48.78 173.523 49.836C174.003 50.892 174.249 52.224 174.261 53.832C174.261 54.552 174.237 55.236 174.189 55.884C174.153 56.532 174.105 57.072 174.045 57.504H159.141L159.501 54.264H168.213C168.273 53.292 168.225 52.482 168.069 51.834C167.925 51.174 167.655 50.682 167.259 50.358C166.875 50.034 166.353 49.872 165.693 49.872C164.937 49.872 164.295 50.082 163.767 50.502C163.251 50.91 162.861 51.618 162.597 52.626C162.333 53.634 162.213 55.032 162.237 56.82C162.261 57.984 162.471 58.926 162.867 59.646C163.275 60.354 163.851 60.87 164.595 61.194C165.339 61.518 166.233 61.68 167.277 61.68C167.925 61.68 168.603 61.632 169.311 61.536C170.019 61.44 170.673 61.314 171.273 61.158C171.885 61.002 172.353 60.84 172.677 60.672L173.685 64.128C173.241 64.488 172.623 64.836 171.831 65.172C171.051 65.496 170.139 65.766 169.095 65.982C168.063 66.186 166.953 66.288 165.765 66.288ZM178.535 74.892V45.948H184.691V48.396L185.051 48.828V63.408L184.979 65.244L185.051 68.448V74.892H178.535ZM188.291 66.288C187.103 66.288 186.131 66.162 185.375 65.91C184.631 65.646 184.151 65.436 183.935 65.28L185.051 61.176C185.303 61.428 185.675 61.614 186.167 61.734C186.659 61.842 187.199 61.896 187.787 61.896C188.555 61.896 189.227 61.656 189.803 61.176C190.391 60.696 190.853 59.994 191.189 59.07C191.525 58.134 191.699 56.988 191.711 55.632C191.711 53.7 191.411 52.368 190.811 51.636C190.211 50.892 189.395 50.52 188.363 50.52C187.715 50.52 187.085 50.628 186.473 50.844C185.873 51.048 185.399 51.288 185.051 51.564L184.367 48.216C184.643 47.916 185.039 47.568 185.555 47.172C186.071 46.776 186.737 46.434 187.553 46.146C188.369 45.846 189.371 45.696 190.559 45.696C191.987 45.696 193.307 46.044 194.519 46.74C195.731 47.424 196.703 48.474 197.435 49.89C198.179 51.294 198.551 53.076 198.551 55.236C198.551 57.504 198.125 59.466 197.273 61.122C196.421 62.766 195.221 64.038 193.673 64.938C192.137 65.838 190.343 66.288 188.291 66.288ZM202.467 66V36.768H208.983V66H202.467ZM222.498 66.288C220.65 66.288 219.078 66.006 217.782 65.442C216.498 64.866 215.466 64.08 214.686 63.084C213.906 62.088 213.342 60.948 212.994 59.664C212.646 58.368 212.478 57 212.49 55.56C212.526 53.424 212.988 51.624 213.876 50.16C214.764 48.696 215.982 47.586 217.53 46.83C219.078 46.074 220.854 45.696 222.858 45.696C225.33 45.696 227.298 46.188 228.762 47.172C230.238 48.156 231.294 49.458 231.93 51.078C232.566 52.698 232.866 54.468 232.83 56.388C232.806 58.536 232.35 60.348 231.462 61.824C230.586 63.288 229.374 64.398 227.826 65.154C226.278 65.91 224.502 66.288 222.498 66.288ZM222.642 61.788C223.926 61.788 224.814 61.32 225.306 60.384C225.81 59.436 226.062 58.008 226.062 56.1C226.062 55.02 225.96 54.036 225.756 53.148C225.552 52.248 225.21 51.534 224.73 51.006C224.25 50.466 223.59 50.196 222.75 50.196C221.442 50.196 220.53 50.67 220.014 51.618C219.51 52.566 219.258 53.952 219.258 55.776C219.258 56.88 219.36 57.888 219.564 58.8C219.78 59.712 220.134 60.438 220.626 60.978C221.118 61.518 221.79 61.788 222.642 61.788ZM235.683 74.568V69.564C235.887 69.636 236.229 69.714 236.709 69.798C237.189 69.882 237.579 69.924 237.879 69.924C238.503 69.924 239.157 69.846 239.841 69.69C240.525 69.534 241.149 69.144 241.713 68.52C242.289 67.896 242.715 66.888 242.991 65.496L243.243 66H240.399L233.487 45.948H240.363L243.243 56.496L244.827 63.084H244.323L245.763 56.496L247.995 45.948H254.835L248.535 66.468C247.803 68.856 246.873 70.65 245.745 71.85C244.617 73.05 243.411 73.884 242.127 74.352C241.683 74.532 241.125 74.67 240.453 74.766C239.793 74.874 239.199 74.928 238.671 74.928C238.491 74.928 238.173 74.904 237.717 74.856C237.273 74.82 236.841 74.772 236.421 74.712C236.001 74.664 235.755 74.616 235.683 74.568Z" fill="white"/>
<defs>
<filter id="filter0_d_811_8" x="0" y="0" width="288" height="112" filterUnits="userSpaceOnUse" color-interpolation-filters="sRGB">
<feFlood flood-opacity="0" result="BackgroundImageFix"/>
<feColorMatrix in="SourceAlpha" type="matrix" values="0 0 0 0 0 0 0 0 0 0 0 0 0 0 0 0 0 0 127 0" result="hardAlpha"/>
<feOffset dy="4"/>
<feGaussianBlur stdDeviation="2"/>
<feComposite in2="hardAlpha" operator="out"/>
<feColorMatrix type="matrix" values="0 0 0 0 0 0 0 0 0 0 0 0 0 0 0 0 0 0 0.25 0"/>
<feBlend mode="normal" in2="BackgroundImageFix" result="effect1_dropShadow_811_8"/>
<feBlend mode="normal" in="SourceGraphic" in2="effect1_dropShadow_811_8" result="shape"/>
</filter>
</defs>
</svg>
