<svg width="280" height="104" viewBox="0 0 280 104" fill="none" xmlns="http://www.w3.org/2000/svg">
<rect width="280" height="104" rx="12" fill="#0F092B"/>
<line x1="106.5" x2="106.5" y2="104" stroke="#1F1C3B"/>
<path d="M55.5 87C74.5538 87 90 71.5538 90 52.5C90 33.4462 74.5538 18 55.5 18C36.4462 18 21 33.4462 21 52.5C21 71.5538 36.4462 87 55.5 87Z" fill="#1F1C3B"/>
<path d="M65.0972 57.5537C66.015 55.9638 65.4703 53.9309 63.8805 53.013C62.2906 52.0951 60.2577 52.6398 59.3398 54.2297L50.1998 70.0606C49.2819 71.6505 49.8266 73.6834 51.4165 74.6013C53.0063 75.5192 55.0393 74.9745 55.9572 73.3846L65.0972 57.5537Z" fill="#F6005B"/>
<path d="M57.7124 53.8407C58.6303 52.2508 58.0856 50.2179 56.4958 49.3C54.9059 48.3821 52.873 48.9268 51.9551 50.5167L51.1246 51.9551C50.2067 53.545 50.7514 55.5779 52.3413 56.4958C53.9311 57.4137 55.964 56.869 56.8819 55.2791L57.7124 53.8407Z" fill="#F6005B"/>
<path d="M59.5595 34.2027C60.4774 32.6128 59.9327 30.5799 58.3429 29.662C56.753 28.7441 54.7201 29.2888 53.8022 30.8787L44.6622 46.7096C43.7443 48.2995 44.289 50.3324 45.8789 51.2503C47.4687 52.1682 49.5016 51.6235 50.4195 50.0336L59.5595 34.2027Z" fill="#F6005B"/>
<path d="M125.88 66V39.252C126.156 39.252 126.432 39.252 126.708 39.252C126.984 39.252 127.26 39.252 127.536 39.252C127.812 39.252 128.088 39.252 128.364 39.252C128.808 39.252 129.444 39.228 130.272 39.18C131.112 39.132 132.012 39.084 132.972 39.036C133.944 38.988 134.844 38.964 135.672 38.964C140.208 38.964 143.532 40.098 145.644 42.366C147.756 44.634 148.812 47.832 148.812 51.96C148.812 54.996 148.278 57.588 147.21 59.736C146.142 61.872 144.6 63.504 142.584 64.632C140.568 65.748 138.132 66.3 135.276 66.288C133.968 66.264 132.726 66.21 131.55 66.126C130.386 66.042 129.288 66 128.256 66C127.992 66 127.728 66 127.464 66C127.2 66 126.936 66 126.672 66C126.408 66 126.144 66 125.88 66ZM132.612 61.068C132.96 61.176 133.41 61.254 133.962 61.302C134.514 61.338 135.084 61.356 135.672 61.356C136.92 61.344 138.006 61.026 138.93 60.402C139.866 59.778 140.586 58.818 141.09 57.522C141.606 56.226 141.864 54.564 141.864 52.536C141.864 50.388 141.63 48.678 141.162 47.406C140.694 46.122 139.98 45.198 139.02 44.634C138.072 44.07 136.872 43.788 135.42 43.788C134.976 43.788 134.478 43.818 133.926 43.878C133.374 43.926 132.936 43.98 132.612 44.04V61.068ZM161.765 66.288C158.525 66.288 156.053 65.37 154.349 63.534C152.645 61.686 151.793 59.136 151.793 55.884C151.793 53.94 152.189 52.2 152.981 50.664C153.773 49.128 154.913 47.916 156.401 47.028C157.901 46.14 159.713 45.696 161.837 45.696C162.905 45.696 163.937 45.822 164.933 46.074C165.929 46.314 166.823 46.74 167.615 47.352C168.407 47.952 169.043 48.78 169.523 49.836C170.003 50.892 170.249 52.224 170.261 53.832C170.261 54.552 170.237 55.236 170.189 55.884C170.153 56.532 170.105 57.072 170.045 57.504H155.141L155.501 54.264H164.213C164.273 53.292 164.225 52.482 164.069 51.834C163.925 51.174 163.655 50.682 163.259 50.358C162.875 50.034 162.353 49.872 161.693 49.872C160.937 49.872 160.295 50.082 159.767 50.502C159.251 50.91 158.861 51.618 158.597 52.626C158.333 53.634 158.213 55.032 158.237 56.82C158.261 57.984 158.471 58.926 158.867 59.646C159.275 60.354 159.851 60.87 160.595 61.194C161.339 61.518 162.233 61.68 163.277 61.68C163.925 61.68 164.603 61.632 165.311 61.536C166.019 61.44 166.673 61.314 167.273 61.158C167.885 61.002 168.353 60.84 168.677 60.672L169.685 64.128C169.241 64.488 168.623 64.836 167.831 65.172C167.051 65.496 166.139 65.766 165.095 65.982C164.063 66.186 162.953 66.288 161.765 66.288ZM174.535 74.892V45.948H180.691V48.396L181.051 48.828V63.408L180.979 65.244L181.051 68.448V74.892H174.535ZM184.291 66.288C183.103 66.288 182.131 66.162 181.375 65.91C180.631 65.646 180.151 65.436 179.935 65.28L181.051 61.176C181.303 61.428 181.675 61.614 182.167 61.734C182.659 61.842 183.199 61.896 183.787 61.896C184.555 61.896 185.227 61.656 185.803 61.176C186.391 60.696 186.853 59.994 187.189 59.07C187.525 58.134 187.699 56.988 187.711 55.632C187.711 53.7 187.411 52.368 186.811 51.636C186.211 50.892 185.395 50.52 184.363 50.52C183.715 50.52 183.085 50.628 182.473 50.844C181.873 51.048 181.399 51.288 181.051 51.564L180.367 48.216C180.643 47.916 181.039 47.568 181.555 47.172C182.071 46.776 182.737 46.434 183.553 46.146C184.369 45.846 185.371 45.696 186.559 45.696C187.987 45.696 189.307 46.044 190.519 46.74C191.731 47.424 192.703 48.474 193.435 49.89C194.179 51.294 194.551 53.076 194.551 55.236C194.551 57.504 194.125 59.466 193.273 61.122C192.421 62.766 191.221 64.038 189.673 64.938C188.137 65.838 186.343 66.288 184.291 66.288ZM198.467 66V36.768H204.983V66H198.467ZM218.498 66.288C216.65 66.288 215.078 66.006 213.782 65.442C212.498 64.866 211.466 64.08 210.686 63.084C209.906 62.088 209.342 60.948 208.994 59.664C208.646 58.368 208.478 57 208.49 55.56C208.526 53.424 208.988 51.624 209.876 50.16C210.764 48.696 211.982 47.586 213.53 46.83C215.078 46.074 216.854 45.696 218.858 45.696C221.33 45.696 223.298 46.188 224.762 47.172C226.238 48.156 227.294 49.458 227.93 51.078C228.566 52.698 228.866 54.468 228.83 56.388C228.806 58.536 228.35 60.348 227.462 61.824C226.586 63.288 225.374 64.398 223.826 65.154C222.278 65.91 220.502 66.288 218.498 66.288ZM218.642 61.788C219.926 61.788 220.814 61.32 221.306 60.384C221.81 59.436 222.062 58.008 222.062 56.1C222.062 55.02 221.96 54.036 221.756 53.148C221.552 52.248 221.21 51.534 220.73 51.006C220.25 50.466 219.59 50.196 218.75 50.196C217.442 50.196 216.53 50.67 216.014 51.618C215.51 52.566 215.258 53.952 215.258 55.776C215.258 56.88 215.36 57.888 215.564 58.8C215.78 59.712 216.134 60.438 216.626 60.978C217.118 61.518 217.79 61.788 218.642 61.788ZM231.683 74.568V69.564C231.887 69.636 232.229 69.714 232.709 69.798C233.189 69.882 233.579 69.924 233.879 69.924C234.503 69.924 235.157 69.846 235.841 69.69C236.525 69.534 237.149 69.144 237.713 68.52C238.289 67.896 238.715 66.888 238.991 65.496L239.243 66H236.399L229.487 45.948H236.363L239.243 56.496L240.827 63.084H240.323L241.763 56.496L243.995 45.948H250.835L244.535 66.468C243.803 68.856 242.873 70.65 241.745 71.85C240.617 73.05 239.411 73.884 238.127 74.352C237.683 74.532 237.125 74.67 236.453 74.766C235.793 74.874 235.199 74.928 234.671 74.928C234.491 74.928 234.173 74.904 233.717 74.856C233.273 74.82 232.841 74.772 232.421 74.712C232.001 74.664 231.755 74.616 231.683 74.568Z" fill="white"/>
</svg>
