<svg xmlns="http://www.w3.org/2000/svg" xmlns:xlink="http://www.w3.org/1999/xlink" width="1033.003" height="771.76" viewBox="0 0 1033.003 771.76">
  <defs>
    <linearGradient id="linear-gradient" x1="0.5" y1="1" x2="0.5" gradientUnits="objectBoundingBox">
      <stop offset="0" stop-color="gray" stop-opacity="0.251"/>
      <stop offset="0.54" stop-color="gray" stop-opacity="0.122"/>
      <stop offset="1" stop-color="gray" stop-opacity="0.102"/>
    </linearGradient>
  </defs>
  <g id="undraw_content_vbqo" transform="translate(0 4.1)">
    <path id="Path_1" data-name="Path 1" d="M713.17,251.41s-14.07-5.71-58.81,14.82S604,284.14,592.44,281s-18-3.88-30.46-21c0,0-8.76-47.48-17.23-54.84s-44.5,4.19-44.5,4.19-43.19,9.91-51.42-47.81c0,0,5.84-43.51-2.11-56.86,0,0,16,6.93,42.54-4.25s47.69,12,47.69,12,6.68,17.3,6,27.61,3.53,14.18,16.17,9.2c0,0,6.2-8.83-2.59-23.42s-15.06-25.47-12.6-36.8,9.5-27,32.16-34.9,53.44-9.38,68.22-15.53,18.35-10.15,18.35-10.15S653.55,37.58,675,76.19s7.77,55.38,7.77,55.38-11.4,27.16-61.7,25c0,0-48.47,1.77-22,22.33,0,0,16.93-3.45,42.23-11.49s43.57,25.15,48.1,48.25S713.17,251.41,713.17,251.41Z" transform="translate(303.57 -32.54)" fill="#0f092b"/>
    <path id="Path_4" data-name="Path 4" d="M557.78,179.88l.29.5c-27.1,33.83-28.89,86.36-29,86.82l-5.72-6.6C523.47,260.14,530.49,213.94,557.78,179.88Z" transform="translate(-28.43 -18.54)" fill="#444053"/>
    <path id="Path_6" data-name="Path 6" d="M677.12,249.05S661,238.21,662.9,225.58" transform="translate(-28.43 -18.54)" fill="none" stroke="#444053" stroke-miterlimit="10" stroke-width="1"/>
    <path id="Path_7" data-name="Path 7" d="M652.43,263.06s-23-8.36-25.32-41.11" transform="translate(-28.43 -18.54)" fill="none" stroke="#444053" stroke-miterlimit="10" stroke-width="1"/>
    <path id="Path_8" data-name="Path 8" d="M615.3,271.54s-22-18.25-14.69-50.13" transform="translate(-28.43 -18.54)" fill="none" stroke="#444053" stroke-miterlimit="10" stroke-width="1"/>
    <path id="Path_9" data-name="Path 9" d="M570.68,262.62s-14.65-30.71-1.62-50.69" transform="translate(-28.43 -18.54)" fill="none" stroke="#444053" stroke-miterlimit="10" stroke-width="1"/>
    <path id="Path_10" data-name="Path 10" d="M682.12,212.82s-16.65,5.28-13.08,14" transform="translate(-28.43 -18.54)" fill="none" stroke="#444053" stroke-miterlimit="10" stroke-width="1"/>
    <path id="Path_11" data-name="Path 11" d="M662,182.61s-22.27,7.07-22.8,38.57" transform="translate(-28.43 -18.54)" fill="none" stroke="#444053" stroke-miterlimit="10" stroke-width="1"/>
    <path id="Path_12" data-name="Path 12" d="M631,175.34s-20.26,25-18.77,47.75" transform="translate(-28.43 -18.54)" fill="none" stroke="#444053" stroke-miterlimit="10" stroke-width="1"/>
    <path id="Path_13" data-name="Path 13" d="M595.48,185.15s-20.13,19.24-17.56,29.95" transform="translate(-28.43 -18.54)" fill="none" stroke="#444053" stroke-miterlimit="10" stroke-width="1"/>
    <path id="Path_14" data-name="Path 14" d="M583.34,178.35s-18.88,3.39-21.52-2.81" transform="translate(-28.43 -18.54)" fill="none" stroke="#444053" stroke-miterlimit="10" stroke-width="1"/>
    <path id="Path_19" data-name="Path 19" d="M615.47,111.01" transform="translate(-28.43 -18.54)" fill="none" stroke="#444053" stroke-miterlimit="10" stroke-width="0.75"/>
    <path id="Path_23" data-name="Path 23" d="M478.52,202.75s30.54,2.62,44.63-13.14" transform="translate(-28.43 -18.54)" fill="none" stroke="#444053" stroke-miterlimit="10" stroke-width="1"/>
    <path id="Path_28" data-name="Path 28" d="M620.4,156c-40.055,6.681-80.145,7.6-120,5.534-30.791-1.594-61.527-5.016-91.748-8.914-68.84-8.88-137.52-20.22-209.07-18-46,1.44-97.17,10.48-129,38.22-30.62,26.69-41.622,45.332-34.71,96.18s48.87,94.4,62.36,107.21c47,44.58,33.67,113.64,3.91,172.12-14,27.44-31.11,54.37-40.5,82.5S51.32,689.28,69,712.57c17.54,23.09,51.09,36.39,86,43.52,70.89,14.47,149.57,7,225.67-3.39,168.44-23.11,335-60.49,501.08-97.8,61.47-13.8,124.091-223.684,92.59-265.38-18.94-25-11.23-58.62,3.24-88.17,31-63.4,91.75-125.65,83-189.36-6-43.76-48.38-80.4-104.68-90.53-59-10.61-134.41,7.11-167.78,50.62C753.76,117,683.44,145.5,620.4,156Z" transform="translate(-28.43 -18.54)" fill="#f6005c" opacity="0.137"/>
    <rect id="Rectangle_1" data-name="Rectangle 1" width="950.33" height="538.33" rx="12.49" transform="translate(76.29 150.11)" fill="url(#linear-gradient)"/>
    <rect id="Rectangle_2" data-name="Rectangle 2" width="947.42" height="528.97" rx="12.49" transform="translate(77.8 157.68)" fill="#fff"/>
    <rect id="Rectangle_3" data-name="Rectangle 3" width="947.42" height="528.97" rx="12.49" transform="translate(77.8 157.68)" fill="#fff"/>
    <rect id="Rectangle_4" data-name="Rectangle 4" width="947.42" height="528.97" rx="12.49" transform="translate(77.8 157.68)" fill="#5a5773" opacity="0.04"/>
    <path id="Path_29" data-name="Path 29" d="M1048.84,170.15H111a4.81,4.81,0,0,0-4.81,4.81V195.3h947.42V175a4.81,4.81,0,0,0-4.77-4.85Z" transform="translate(-28.43 -18.54)" fill="#0f092b"/>
    <g id="buttons">
      <circle id="Ellipse_3" data-name="Ellipse 3" cx="6.5" cy="6.5" r="6.5" transform="translate(90.22 157.68)" fill="#fff"/>
      <circle id="Ellipse_4" data-name="Ellipse 4" cx="6.5" cy="6.5" r="6.5" transform="translate(107.72 157.68)" fill="#fff"/>
      <circle id="Ellipse_5" data-name="Ellipse 5" cx="6.5" cy="6.5" r="6.5" transform="translate(125.22 157.68)" fill="#fff"/>
    </g>
    <rect id="Rectangle_5" data-name="Rectangle 5" width="790" height="392.78" rx="10.19" transform="translate(141.22 293.86)" fill="#fff"/>
    <rect id="Rectangle_6" data-name="Rectangle 6" width="227.24" height="23.85" rx="3.86" transform="translate(107.72 203.45)" fill="#5a5773" opacity="0.2"/>
    <rect id="Rectangle_7" data-name="Rectangle 7" width="227.24" height="23.85" rx="3.86" transform="translate(536.22 339.45)" fill="#f6005c" opacity="0.2"/>
    <rect id="Rectangle_8" data-name="Rectangle 8" width="354.83" height="23.85" rx="3.86" transform="translate(536.22 406.23)" fill="#f6005c" opacity="0.2"/>
    <rect id="Rectangle_9" data-name="Rectangle 9" width="354.83" height="23.85" rx="3.86" transform="translate(536.22 445.23)" fill="#f6005c" opacity="0.2"/>
    <rect id="Rectangle_10" data-name="Rectangle 10" width="354.83" height="23.85" rx="3.86" transform="translate(536.22 484.23)" fill="#f6005c" opacity="0.2"/>
    <rect id="Rectangle_11" data-name="Rectangle 11" width="354.83" height="23.85" rx="3.86" transform="translate(536.22 523.23)" fill="#f6005c" opacity="0.2"/>
    <rect id="Rectangle_12" data-name="Rectangle 12" width="707" height="23.85" rx="3.86" transform="translate(184.05 566.23)" fill="#f6005c" opacity="0.2"/>
    <rect id="Rectangle_13" data-name="Rectangle 13" width="707" height="23.85" rx="3.86" transform="translate(184.05 605.23)" fill="#f6005c" opacity="0.2"/>
    <rect id="Rectangle_14" data-name="Rectangle 14" width="707" height="23.85" rx="3.86" transform="translate(184.05 644.23)" fill="#f6005c" opacity="0.2"/>
    <path id="Path_30" data-name="Path 30" d="M757.73,678.54s5.93,7.75-2.74,19.46-15.81,21.59-12.92,28.89c0,0,13.07-21.74,23.72-22S769.44,691.61,757.73,678.54Z" transform="translate(-28.43 -18.54)" fill="#f6005c"/>
    <path id="Path_31" data-name="Path 31" d="M757.73,678.54a9.6,9.6,0,0,1,1.21,2.43c10.39,12.2,15.92,23.59,5.94,23.87-9.3.27-20.46,16.9-23.13,21.09a7.707,7.707,0,0,0,.32,1s13.07-21.74,23.72-22S769.44,691.61,757.73,678.54Z" transform="translate(-28.43 -18.54)" opacity="0.1"/>
    <path id="Path_32" data-name="Path 32" d="M768.75,688.42c0,2.73-.3,4.94-.68,4.94s-.68-2.21-.68-4.94.38-1.44.76-1.44S768.75,685.69,768.75,688.42Z" transform="translate(-28.43 -18.54)" fill="#ffd037"/>
    <path id="Path_33" data-name="Path 33" d="M772.54,691.68c-2.4,1.3-4.49,2.09-4.67,1.76s1.62-1.66,4-3,1.45-.36,1.63,0S774.93,690.37,772.54,691.68Z" transform="translate(-28.43 -18.54)" fill="#ffd037"/>
    <path id="Path_34" data-name="Path 34" d="M726.41,678.54s-5.93,7.75,2.73,19.46,15.82,21.59,12.93,28.89c0,0-13.08-21.74-23.72-22S714.7,691.61,726.41,678.54Z" transform="translate(-28.43 -18.54)" fill="#f6005c"/>
    <path id="Path_35" data-name="Path 35" d="M726.41,678.54a9.391,9.391,0,0,0-1.22,2.43c-10.38,12.2-15.91,23.59-5.93,23.87,9.3.27,20.45,16.9,23.12,21.09a7.656,7.656,0,0,1-.31,1s-13.08-21.74-23.72-22S714.7,691.61,726.41,678.54Z" transform="translate(-28.43 -18.54)" opacity="0.1"/>
    <path id="Path_36" data-name="Path 36" d="M715.38,688.42c0,2.73.31,4.94.69,4.94s.68-2.21.68-4.94S716.37,687,716,687,715.38,685.69,715.38,688.42Z" transform="translate(-28.43 -18.54)" fill="#ffd037"/>
    <path id="Path_37" data-name="Path 37" d="M711.6,691.68c2.4,1.3,4.49,2.09,4.67,1.76s-1.62-1.66-4-3-1.45-.36-1.63,0S709.2,690.37,711.6,691.68Z" transform="translate(-28.43 -18.54)" fill="#ffd037"/>
    <ellipse id="Ellipse_6" data-name="Ellipse 6" cx="62" cy="9.51" rx="62" ry="9.51" transform="translate(651.64 748.64)" fill="#0f092b" opacity="0.1"/>
    <path id="Path_38" data-name="Path 38" d="M774,716.44l-.3,2.42-.41,3.42-.18,1.43-.41,3.42-.18,1.43-.42,3.41-4.74,38.9c-.43,3.47-6.1,6.18-13,6.18H729.74c-6.85,0-12.51-2.71-12.93-6.18L712.05,732l-.41-3.41-.18-1.43-.42-3.42-.17-1.43-.42-3.42-.3-2.42c-.23-2,2.84-3.62,6.71-3.62h50.42C771.15,712.82,774.22,714.47,774,716.44Z" transform="translate(-28.43 -18.54)" fill="#0f092b"/>
    <path id="Path_39" data-name="Path 39" d="M745.25,700.32l-.41,3.42h-62.4l-.42-3.42Z" fill="#9d9cb5"/>
    <path id="Path_40" data-name="Path 40" d="M744.66,705.16l-.41,3.42H683.03l-.42-3.42Z" fill="#9d9cb5"/>
    <path id="Path_41" data-name="Path 41" d="M744.07,710.01l-.42,3.42H683.62l-.41-3.42Z" fill="#9d9cb5"/>
    <rect id="Rectangle_15" data-name="Rectangle 15" width="302" height="221.54" rx="8.5" transform="translate(184.05 326.22)" fill="#f6005c" opacity="0.2"/>
    <path id="Path_43" data-name="Path 43" d="M978.65,598.81s3.43-18,14.44-18l8.06,16.57-5.37,3.7S984.11,601.4,978.65,598.81Z" transform="translate(-28.43 -18.54)" fill="#65617d"/>
    <path id="Path_44" data-name="Path 44" d="M1001.15,597.33l-5.37,3.7s-8.21.26-14.08-1.18a16.231,16.231,0,0,1-3.05-1l.06-.29v-.06a40,40,0,0,1,2.08-6.6c.34-.81.72-1.64,1.14-2.47,1.61-3.1,3.88-6.15,7-7.65a9.488,9.488,0,0,1,3.67-1h.49l.18.37,2.72,5.6Z" transform="translate(-28.43 -18.54)" opacity="0.1"/>
    <path id="Path_48" data-name="Path 48" d="M990.78,580.3s-.93,11.29-8,11.48c0,0-2-1.2-4.68-3.21l-.6-.77a9.21,9.21,0,0,0,3.86,1,5.21,5.21,0,0,0,5-3.17,40,40,0,0,0,2-4.49,14,14,0,0,0,.71-2.77Z" transform="translate(-28.43 -18.54)" opacity="0.1"/>
    <path id="Path_49" data-name="Path 49" d="M987.72,600.76l-1.58-2-5.33-6.86-2.71-3.51a9.13,9.13,0,0,0,3.85,1,5.18,5.18,0,0,0,5-3.17,39.209,39.209,0,0,0,1.95-4.48c.88-2.5.86-3.78.55-4.22a24.715,24.715,0,0,1,3.06,2.72h0l.51.48.19.38,2.79,5.4a1.439,1.439,0,0,1,0,.23C996.2,588.43,997.1,599.22,987.72,600.76Z" transform="translate(-28.43 -18.54)" fill="#e7effd"/>
    <path id="Path_70" data-name="Path 70" d="M1001.15,597.33l-5.37,3.7s-8.21.26-14.08-1.18l-3-1.33-.6-.26.62.2a12.26,12.26,0,0,0,7.41.26c7.6-2.56,6.76-15.1,6.46-17.94a2.625,2.625,0,0,0-.06-.54h0v.07a5,5,0,0,0,.35.49l.34.36h0L996,586.5a1.447,1.447,0,0,1,0,.23Z" transform="translate(-28.43 -18.54)" opacity="0.1"/>
    <path id="Path_79" data-name="Path 79" d="M1032,768.49s-5.74,1.67-.18,5S1032,768.49,1032,768.49Z" transform="translate(-28.43 -18.54)" opacity="0.1"/>
    <path id="Path_81" data-name="Path 81" d="M1058.73,690.08l-.1.92L1050,713.6s-1.39,6.85-2.59,10.74a70.519,70.519,0,0,0-1.81,8l7.64-47.37Z" transform="translate(-28.43 -18.54)" opacity="0.1"/>
    <path id="Path_85" data-name="Path 85" d="M1014.29,575.67s-5.92,7.22-3.52,10S1014.29,575.67,1014.29,575.67Z" transform="translate(-28.43 -18.54)" opacity="0.1"/>
    <path id="Path_99" data-name="Path 99" d="M1030.72,568.26s0,21.11-1.8,23.19S1030.72,568.26,1030.72,568.26Z" transform="translate(-28.43 -18.54)" opacity="0.1"/>
    <circle id="Ellipse_7" data-name="Ellipse 7" cx="0.23" cy="0.23" r="0.23" transform="translate(935.28 546.03)" fill="#e6e8ec"/>
    <rect id="Rectangle_16" data-name="Rectangle 16" width="181.18" height="208.22" rx="6.61" transform="translate(849.12 551.42)" fill="#fff"/>
    <rect id="Rectangle_17" data-name="Rectangle 17" width="181.18" height="208.22" rx="6.61" transform="translate(849.12 551.42)" fill="#5a5773" opacity="0.1"/>
    <rect id="Rectangle_18" data-name="Rectangle 18" width="162.7" height="186.98" rx="6.61" transform="translate(858.36 562.04)" fill="#fff"/>
    <rect id="Rectangle_19" data-name="Rectangle 19" width="111.62" height="38.52" rx="6.03" transform="translate(882.03 599.54)" fill="#f6005c"/>
    <rect id="Rectangle_20" data-name="Rectangle 20" width="103.43" height="7.86" transform="translate(886.13 652.15)" fill="#f6005c"/>
    <rect id="Rectangle_21" data-name="Rectangle 21" width="142.32" height="7.86" transform="translate(868.55 668.74)" fill="#f6005c"/>
    <rect id="Rectangle_22" data-name="Rectangle 22" width="142.32" height="7.86" transform="translate(868.55 686.2)" fill="#f6005c"/>
    <rect id="Rectangle_23" data-name="Rectangle 23" width="142.32" height="7.86" transform="translate(868.55 703.66)" fill="#f6005c"/>
    <rect id="Rectangle_24" data-name="Rectangle 24" width="426.61" height="208.22" rx="6.61" transform="translate(0 482.59)" fill="#fff"/>
    <rect id="Rectangle_25" data-name="Rectangle 25" width="426.61" height="208.22" rx="6.61" transform="translate(0 482.59)" fill="#5a5773" opacity="0.1"/>
    <rect id="Rectangle_26" data-name="Rectangle 26" width="383.08" height="186.98" rx="6.61" transform="translate(21.76 493.21)" fill="#fff"/>
    <rect id="Rectangle_27" data-name="Rectangle 27" width="262.81" height="38.52" rx="6.03" transform="translate(77.51 530.72)" fill="#f6005c"/>
    <rect id="Rectangle_28" data-name="Rectangle 28" width="243.53" height="7.86" transform="translate(87.15 583.32)" fill="#f6005c"/>
    <rect id="Rectangle_29" data-name="Rectangle 29" width="335.1" height="7.86" transform="translate(45.75 599.91)" fill="#f6005c"/>
    <rect id="Rectangle_30" data-name="Rectangle 30" width="335.1" height="7.86" transform="translate(45.75 617.37)" fill="#f6005c"/>
    <rect id="Rectangle_31" data-name="Rectangle 31" width="335.1" height="7.86" transform="translate(45.75 634.83)" fill="#f6005c"/>
  </g>
</svg>
