<svg width="20" height="18" viewBox="0 0 20 18" fill="none" xmlns="http://www.w3.org/2000/svg">
<path d="M0.649068 5.32977e-05C0.55555 -0.00115286 0.462901 0.0181263 0.377627 0.0565373C0.292352 0.0949483 0.21652 0.15156 0.155453 0.222398C0.0943858 0.293235 0.0495652 0.376581 0.0241377 0.466585C-0.00128983 0.556588 -0.00670781 0.651066 0.00826414 0.743386L2.72848 17.2569C2.76237 17.459 2.86638 17.6427 3.02224 17.7757C3.17811 17.9087 3.37585 17.9825 3.58075 17.9842H16.6307C16.7843 17.9862 16.9335 17.9329 17.0511 17.8341C17.1687 17.7353 17.247 17.5976 17.2715 17.4459L19.9917 0.74659C20.0067 0.65427 20.0013 0.559792 19.9759 0.469789C19.9504 0.379785 19.9056 0.296439 19.8445 0.225602C19.7835 0.154764 19.7076 0.0981524 19.6224 0.0597414C19.5371 0.0213303 19.4445 0.00205108 19.3509 0.00325724L0.649068 5.32977e-05ZM12.1034 11.935H7.93821L6.8104 6.04284H13.1127L12.1034 11.935Z" fill="#2684FF"/>
<path d="M19.1267 6.04297H13.1127L12.1034 11.9352H7.93822L3.02005 17.7729C3.17593 17.9077 3.37468 17.9826 3.58075 17.9844H16.6339C16.7875 17.9863 16.9367 17.9331 17.0543 17.8343C17.172 17.7355 17.2502 17.5977 17.2747 17.4461L19.1267 6.04297Z" fill="url(#paint0_linear_229_2177)"/>
<defs>
<linearGradient id="paint0_linear_229_2177" x1="20.5172" y1="7.69304" x2="10.5783" y2="15.45" gradientUnits="userSpaceOnUse">
<stop offset="0.18" stop-color="#0052CC"/>
<stop offset="1" stop-color="#2684FF"/>
</linearGradient>
</defs>
</svg>
