<svg width="20" height="20" viewBox="0 0 20 20" fill="none" xmlns="http://www.w3.org/2000/svg">
<path d="M0.332907 7.6242L0.361023 7.55235L3.08318 0.448077C3.13856 0.308837 3.23663 0.19072 3.36331 0.110672C3.49007 0.0319836 3.63792 -0.00591509 3.7869 0.00209265C3.93588 0.0101004 4.07882 0.0636289 4.19641 0.155451C4.3127 0.249909 4.39706 0.377903 4.43801 0.522015L6.27604 6.14545H13.7188L15.5568 0.522015C15.5966 0.377118 15.6812 0.248482 15.7984 0.154409C15.916 0.0625873 16.0589 0.00905878 16.2079 0.00105105C16.3569 -0.00695668 16.5047 0.030942 16.6315 0.10963C16.7579 0.190001 16.8559 0.308016 16.9116 0.447036L19.639 7.54818L19.6661 7.62004C20.0579 8.64392 20.1063 9.76746 19.8039 10.8212C19.5015 11.875 18.8646 12.8019 17.9894 13.4622L17.9801 13.4694L17.9551 13.4871L13.8083 16.5925L11.7568 18.1452L10.5072 19.0887C10.361 19.1997 10.1825 19.2598 9.99896 19.2598C9.81543 19.2598 9.63694 19.1997 9.49077 19.0887L8.24112 18.1452L6.18961 16.5925L2.01785 13.4684L2.00744 13.4601C1.13421 12.7997 0.498874 11.8738 0.196913 10.8214C-0.105048 9.76905 -0.0573244 8.64712 0.332907 7.6242V7.6242Z" fill="#E24329"/>
<path d="M0.332905 7.6241L0.361021 7.55225C1.68743 7.82451 2.93734 8.38634 4.02146 9.19762L10 13.7182C7.96411 15.2584 6.19169 16.5966 6.19169 16.5966L2.01993 13.4725L2.00952 13.4641C1.13504 12.8038 0.498718 11.8773 0.196339 10.824C-0.10604 9.77074 -0.0581112 8.64776 0.332905 7.6241Z" fill="#FC6D26"/>
<path d="M13.8083 16.5966L11.7568 18.1493L10.5072 19.0928C10.361 19.2038 10.1825 19.2639 9.99896 19.2639C9.81543 19.2639 9.63695 19.2038 9.49077 19.0928L8.24112 18.1493L6.18961 16.5966C6.18961 16.5966 7.96411 15.2543 10 13.7183C12.0359 15.2543 13.8083 16.5966 13.8083 16.5966Z" fill="#FCA326"/>
<path d="M15.9796 9.19788C17.0628 8.38493 18.3125 7.82163 19.639 7.54834L19.6661 7.6202C20.0579 8.64408 20.1063 9.76761 19.8039 10.8214C19.5015 11.8752 18.8646 12.8021 17.9894 13.4623L17.9801 13.4696L17.9551 13.4873L13.8083 16.5927C13.8083 16.5927 12.038 15.2545 10 13.7143L15.9796 9.19788Z" fill="#FC6D26"/>
</svg>
