<svg width="69" height="69" viewBox="0 0 69 69" fill="none" xmlns="http://www.w3.org/2000/svg">
<rect width="69" height="69" fill="#1F1C3B"/>
<path d="M44.0974 40.5537C45.0152 38.9638 44.4705 36.9309 42.8807 36.013C41.2908 35.0951 39.2579 35.6398 38.34 37.2297L29.2 53.0606C28.2821 54.6505 28.8268 56.6834 30.4167 57.6013C32.0065 58.5192 34.0395 57.9745 34.9574 56.3846L44.0974 40.5537Z" fill="#F6005B"/>
<path d="M36.7123 36.8407C37.6302 35.2508 37.0855 33.2179 35.4957 32.3C33.9058 31.3821 31.8729 31.9268 30.955 33.5167L30.1245 34.9551C29.2066 36.545 29.7513 38.5779 31.3412 39.4958C32.931 40.4137 34.9639 39.869 35.8818 38.2791L36.7123 36.8407Z" fill="#F6005B"/>
<path d="M38.5593 17.2027C39.4772 15.6128 38.9325 13.5799 37.3427 12.662C35.7528 11.7441 33.7199 12.2888 32.802 13.8787L23.662 29.7096C22.7441 31.2995 23.2888 33.3324 24.8787 34.2503C26.4685 35.1682 28.5014 34.6235 29.4193 33.0336L38.5593 17.2027Z" fill="#F6005B"/>
</svg>
