<svg width="246" height="69" viewBox="0 0 246 69" fill="none" xmlns="http://www.w3.org/2000/svg">
<circle cx="34.5" cy="34.5" r="34.5" fill="#1F1C3B"/>
<path d="M44.0974 39.5537C45.0152 37.9638 44.4705 35.9309 42.8807 35.013C41.2908 34.0951 39.2579 34.6398 38.34 36.2297L29.2 52.0606C28.2821 53.6505 28.8268 55.6834 30.4167 56.6013C32.0065 57.5192 34.0395 56.9745 34.9574 55.3846L44.0974 39.5537Z" fill="#F6005B"/>
<path d="M36.7123 35.8407C37.6302 34.2508 37.0855 32.2179 35.4957 31.3C33.9058 30.3821 31.8729 30.9268 30.955 32.5167L30.1245 33.9551C29.2066 35.545 29.7513 37.5779 31.3412 38.4958C32.931 39.4137 34.9639 38.869 35.8818 37.2791L36.7123 35.8407Z" fill="#F6005B"/>
<path d="M38.5593 16.2027C39.4772 14.6128 38.9325 12.5799 37.3427 11.662C35.7528 10.7441 33.7199 11.2888 32.802 12.8787L23.662 28.7096C22.7441 30.2995 23.2888 32.3324 24.8787 33.2503C26.4685 34.1682 28.5014 33.6235 29.4193 32.0336L38.5593 16.2027Z" fill="#F6005B"/>
<path d="M92.44 48.288C91.168 48.288 89.95 48.192 88.786 48C87.634 47.82 86.632 47.604 85.78 47.352C84.928 47.088 84.328 46.848 83.98 46.632L84.808 41.412C85.252 41.664 85.852 41.922 86.608 42.186C87.364 42.45 88.198 42.678 89.11 42.87C90.034 43.05 90.964 43.14 91.9 43.14C93.16 43.14 94.072 42.96 94.636 42.6C95.212 42.24 95.5 41.664 95.5 40.872C95.5 40.296 95.326 39.81 94.978 39.414C94.63 39.006 94.054 38.592 93.25 38.172C92.458 37.752 91.396 37.224 90.064 36.588C88.936 36.048 87.898 35.412 86.95 34.68C86.002 33.936 85.24 33.048 84.664 32.016C84.088 30.972 83.8 29.736 83.8 28.308C83.8 27.084 84.028 26.016 84.484 25.104C84.952 24.18 85.606 23.412 86.446 22.8C87.298 22.188 88.306 21.732 89.47 21.432C90.634 21.12 91.924 20.964 93.34 20.964C95.356 20.964 97 21.15 98.272 21.522C99.544 21.894 100.42 22.224 100.9 22.512L99.856 27.516C99.316 27.096 98.482 26.712 97.354 26.364C96.238 26.004 95.092 25.824 93.916 25.824C93.076 25.824 92.386 25.92 91.846 26.112C91.306 26.292 90.904 26.55 90.64 26.886C90.376 27.222 90.244 27.612 90.244 28.056C90.244 28.596 90.4 29.076 90.712 29.496C91.036 29.904 91.534 30.312 92.206 30.72C92.89 31.116 93.772 31.56 94.852 32.052C96.004 32.568 97.03 33.096 97.93 33.636C98.842 34.176 99.616 34.764 100.252 35.4C100.888 36.036 101.368 36.762 101.692 37.578C102.028 38.382 102.196 39.312 102.196 40.368C102.196 41.964 101.818 43.356 101.062 44.544C100.318 45.732 99.22 46.656 97.768 47.316C96.316 47.964 94.54 48.288 92.44 48.288ZM112.587 48.288C111.147 48.288 109.995 48.048 109.131 47.568C108.279 47.088 107.661 46.368 107.277 45.408C106.905 44.436 106.719 43.224 106.719 41.772V32.232H104.415V28.776C105.303 28.524 106.035 28.266 106.611 28.002C107.187 27.726 107.607 27.312 107.871 26.76C108.003 26.484 108.147 26.154 108.303 25.77C108.459 25.386 108.621 24.984 108.789 24.564C108.957 24.144 109.119 23.748 109.275 23.376H113.235V27.948H118.419V32.232H113.235V39.36C113.235 40.608 113.301 41.52 113.433 42.096C113.577 42.672 113.817 43.038 114.153 43.194C114.489 43.35 114.951 43.428 115.539 43.428C115.839 43.428 116.181 43.392 116.565 43.32C116.949 43.236 117.315 43.134 117.663 43.014C118.011 42.894 118.287 42.768 118.491 42.636L119.247 46.236C118.935 46.548 118.437 46.866 117.753 47.19C117.081 47.502 116.295 47.766 115.395 47.982C114.495 48.186 113.559 48.288 112.587 48.288ZM131.197 48.288C129.349 48.288 127.777 48.006 126.481 47.442C125.197 46.866 124.165 46.08 123.385 45.084C122.605 44.088 122.041 42.948 121.693 41.664C121.345 40.368 121.177 39 121.189 37.56C121.225 35.424 121.687 33.624 122.575 32.16C123.463 30.696 124.681 29.586 126.229 28.83C127.777 28.074 129.553 27.696 131.557 27.696C134.029 27.696 135.997 28.188 137.461 29.172C138.937 30.156 139.993 31.458 140.629 33.078C141.265 34.698 141.565 36.468 141.529 38.388C141.505 40.536 141.049 42.348 140.161 43.824C139.285 45.288 138.073 46.398 136.525 47.154C134.977 47.91 133.201 48.288 131.197 48.288ZM131.341 43.788C132.625 43.788 133.513 43.32 134.005 42.384C134.509 41.436 134.761 40.008 134.761 38.1C134.761 37.02 134.659 36.036 134.455 35.148C134.251 34.248 133.909 33.534 133.429 33.006C132.949 32.466 132.289 32.196 131.449 32.196C130.141 32.196 129.229 32.67 128.713 33.618C128.209 34.566 127.957 35.952 127.957 37.776C127.957 38.88 128.059 39.888 128.263 40.8C128.479 41.712 128.833 42.438 129.325 42.978C129.817 43.518 130.489 43.788 131.341 43.788ZM151.177 36.192L150.925 31.476C151.165 30.744 151.567 30.09 152.131 29.514C152.707 28.938 153.391 28.488 154.183 28.164C154.987 27.828 155.857 27.66 156.793 27.66C157.081 27.66 157.369 27.678 157.657 27.714C157.945 27.75 158.149 27.804 158.269 27.876V34.32C158.113 34.212 157.867 34.104 157.531 33.996C157.195 33.876 156.721 33.816 156.109 33.816C155.149 33.816 154.339 33.96 153.679 34.248C153.031 34.524 152.503 34.848 152.095 35.22C151.699 35.592 151.393 35.916 151.177 36.192ZM145.057 48V27.948H150.745L151.069 31.512L151.573 32.052V48H145.057ZM161.936 48V27.948H167.876L168.02 30.108C168.476 29.736 169.046 29.364 169.73 28.992C170.426 28.62 171.188 28.308 172.016 28.056C172.844 27.804 173.696 27.672 174.572 27.66C175.904 27.624 177.02 27.846 177.92 28.326C178.82 28.806 179.492 29.616 179.936 30.756C180.392 31.884 180.62 33.408 180.62 35.328V48H174.14V36.552C174.14 35.58 174.062 34.818 173.906 34.266C173.75 33.714 173.492 33.324 173.132 33.096C172.772 32.868 172.28 32.76 171.656 32.772C171.188 32.772 170.642 32.88 170.018 33.096C169.406 33.312 168.872 33.636 168.416 34.068V48H161.936ZM180.368 34.212L179.288 30.216C179.6 29.928 180.092 29.58 180.764 29.172C181.436 28.764 182.24 28.41 183.176 28.11C184.124 27.798 185.156 27.648 186.272 27.66C187.616 27.648 188.768 27.876 189.728 28.344C190.688 28.812 191.426 29.61 191.942 30.738C192.458 31.866 192.716 33.408 192.716 35.364V48H186.2V36.516C186.2 35.544 186.122 34.788 185.966 34.248C185.81 33.696 185.546 33.312 185.174 33.096C184.814 32.868 184.316 32.76 183.68 32.772C182.996 32.772 182.354 32.934 181.754 33.258C181.154 33.582 180.692 33.9 180.368 34.212ZM217.239 27.948L203.703 42.528L203.883 41.196L203.955 44.688V48H197.547V36.084V18.804H203.955V29.856L203.667 37.236L202.911 36.336L209.823 27.948H217.239ZM205.503 39.612L209.751 35.112L217.707 48H210.471L205.503 39.612ZM220.016 48V27.948H226.532V48H220.016ZM222.968 25.536C221.924 25.536 221.06 25.224 220.376 24.6C219.704 23.964 219.368 23.16 219.368 22.188C219.368 21.528 219.548 20.922 219.908 20.37C220.268 19.818 220.742 19.38 221.33 19.056C221.93 18.72 222.584 18.552 223.292 18.552C224.36 18.552 225.218 18.864 225.866 19.488C226.526 20.1 226.856 20.904 226.856 21.9C226.856 22.884 226.478 23.736 225.722 24.456C224.966 25.176 224.048 25.536 222.968 25.536ZM238.235 48.288C236.795 48.288 235.643 48.048 234.779 47.568C233.927 47.088 233.309 46.368 232.925 45.408C232.553 44.436 232.367 43.224 232.367 41.772V32.232H230.063V28.776C230.951 28.524 231.683 28.266 232.259 28.002C232.835 27.726 233.255 27.312 233.519 26.76C233.651 26.484 233.795 26.154 233.951 25.77C234.107 25.386 234.269 24.984 234.437 24.564C234.605 24.144 234.767 23.748 234.923 23.376H238.883V27.948H244.067V32.232H238.883V39.36C238.883 40.608 238.949 41.52 239.081 42.096C239.225 42.672 239.465 43.038 239.801 43.194C240.137 43.35 240.599 43.428 241.187 43.428C241.487 43.428 241.829 43.392 242.213 43.32C242.597 43.236 242.963 43.134 243.311 43.014C243.659 42.894 243.935 42.768 244.139 42.636L244.895 46.236C244.583 46.548 244.085 46.866 243.401 47.19C242.729 47.502 241.943 47.766 241.043 47.982C240.143 48.186 239.207 48.288 238.235 48.288Z" fill="#1F1C3B"/>
</svg>
