<svg width="164" height="105" viewBox="0 0 164 105" fill="none" xmlns="http://www.w3.org/2000/svg">
<circle cx="79.5" cy="34.5" r="34.5" fill="#1F1C3B"/>
<path d="M89.0974 39.5537C90.0152 37.9638 89.4705 35.9309 87.8807 35.013C86.2908 34.0951 84.2579 34.6398 83.34 36.2297L74.2 52.0606C73.2821 53.6505 73.8268 55.6834 75.4167 56.6013C77.0065 57.5192 79.0395 56.9745 79.9574 55.3846L89.0974 39.5537Z" fill="#F6005B"/>
<path d="M81.7123 35.8407C82.6302 34.2508 82.0855 32.2179 80.4957 31.3C78.9058 30.3821 76.8729 30.9268 75.955 32.5167L75.1245 33.9551C74.2066 35.545 74.7513 37.5779 76.3412 38.4958C77.931 39.4137 79.9639 38.869 80.8818 37.2791L81.7123 35.8407Z" fill="#F6005B"/>
<path d="M83.5593 16.2027C84.4772 14.6128 83.9325 12.5799 82.3427 11.662C80.7528 10.7441 78.7199 11.2888 77.802 12.8787L68.662 28.7096C67.7441 30.2995 68.2888 32.3324 69.8787 33.2503C71.4685 34.1682 73.5014 33.6235 74.4193 32.0336L83.5593 16.2027Z" fill="#F6005B"/>
<path d="M10.44 104.288C9.168 104.288 7.95 104.192 6.786 104C5.634 103.82 4.632 103.604 3.78 103.352C2.928 103.088 2.328 102.848 1.98 102.632L2.808 97.412C3.252 97.664 3.852 97.922 4.608 98.186C5.364 98.45 6.198 98.678 7.11 98.87C8.034 99.05 8.964 99.14 9.9 99.14C11.16 99.14 12.072 98.96 12.636 98.6C13.212 98.24 13.5 97.664 13.5 96.872C13.5 96.296 13.326 95.81 12.978 95.414C12.63 95.006 12.054 94.592 11.25 94.172C10.458 93.752 9.396 93.224 8.064 92.588C6.936 92.048 5.898 91.412 4.95 90.68C4.002 89.936 3.24 89.048 2.664 88.016C2.088 86.972 1.8 85.736 1.8 84.308C1.8 83.084 2.028 82.016 2.484 81.104C2.952 80.18 3.606 79.412 4.446 78.8C5.298 78.188 6.306 77.732 7.47 77.432C8.634 77.12 9.924 76.964 11.34 76.964C13.356 76.964 15 77.15 16.272 77.522C17.544 77.894 18.42 78.224 18.9 78.512L17.856 83.516C17.316 83.096 16.482 82.712 15.354 82.364C14.238 82.004 13.092 81.824 11.916 81.824C11.076 81.824 10.386 81.92 9.846 82.112C9.306 82.292 8.904 82.55 8.64 82.886C8.376 83.222 8.244 83.612 8.244 84.056C8.244 84.596 8.4 85.076 8.712 85.496C9.036 85.904 9.534 86.312 10.206 86.72C10.89 87.116 11.772 87.56 12.852 88.052C14.004 88.568 15.03 89.096 15.93 89.636C16.842 90.176 17.616 90.764 18.252 91.4C18.888 92.036 19.368 92.762 19.692 93.578C20.028 94.382 20.196 95.312 20.196 96.368C20.196 97.964 19.818 99.356 19.062 100.544C18.318 101.732 17.22 102.656 15.768 103.316C14.316 103.964 12.54 104.288 10.44 104.288ZM30.5868 104.288C29.1468 104.288 27.9948 104.048 27.1308 103.568C26.2788 103.088 25.6608 102.368 25.2768 101.408C24.9048 100.436 24.7188 99.224 24.7188 97.772V88.232H22.4148V84.776C23.3028 84.524 24.0348 84.266 24.6108 84.002C25.1868 83.726 25.6068 83.312 25.8708 82.76C26.0028 82.484 26.1468 82.154 26.3028 81.77C26.4588 81.386 26.6208 80.984 26.7888 80.564C26.9568 80.144 27.1188 79.748 27.2748 79.376H31.2348V83.948H36.4188V88.232H31.2348V95.36C31.2348 96.608 31.3008 97.52 31.4328 98.096C31.5768 98.672 31.8168 99.038 32.1528 99.194C32.4888 99.35 32.9508 99.428 33.5388 99.428C33.8388 99.428 34.1808 99.392 34.5648 99.32C34.9488 99.236 35.3148 99.134 35.6628 99.014C36.0108 98.894 36.2868 98.768 36.4908 98.636L37.2468 102.236C36.9348 102.548 36.4368 102.866 35.7528 103.19C35.0808 103.502 34.2948 103.766 33.3948 103.982C32.4948 104.186 31.5588 104.288 30.5868 104.288ZM49.1974 104.288C47.3494 104.288 45.7774 104.006 44.4814 103.442C43.1974 102.866 42.1654 102.08 41.3854 101.084C40.6054 100.088 40.0414 98.948 39.6934 97.664C39.3454 96.368 39.1774 95 39.1894 93.56C39.2254 91.424 39.6874 89.624 40.5754 88.16C41.4634 86.696 42.6814 85.586 44.2294 84.83C45.7774 84.074 47.5534 83.696 49.5574 83.696C52.0294 83.696 53.9974 84.188 55.4614 85.172C56.9374 86.156 57.9934 87.458 58.6294 89.078C59.2654 90.698 59.5654 92.468 59.5294 94.388C59.5054 96.536 59.0494 98.348 58.1614 99.824C57.2854 101.288 56.0734 102.398 54.5254 103.154C52.9774 103.91 51.2014 104.288 49.1974 104.288ZM49.3414 99.788C50.6254 99.788 51.5134 99.32 52.0054 98.384C52.5094 97.436 52.7614 96.008 52.7614 94.1C52.7614 93.02 52.6594 92.036 52.4554 91.148C52.2514 90.248 51.9094 89.534 51.4294 89.006C50.9494 88.466 50.2894 88.196 49.4494 88.196C48.1414 88.196 47.2294 88.67 46.7134 89.618C46.2094 90.566 45.9574 91.952 45.9574 93.776C45.9574 94.88 46.0594 95.888 46.2634 96.8C46.4794 97.712 46.8334 98.438 47.3254 98.978C47.8174 99.518 48.4894 99.788 49.3414 99.788ZM69.1774 92.192L68.9254 87.476C69.1654 86.744 69.5674 86.09 70.1314 85.514C70.7074 84.938 71.3914 84.488 72.1834 84.164C72.9874 83.828 73.8574 83.66 74.7934 83.66C75.0814 83.66 75.3694 83.678 75.6574 83.714C75.9454 83.75 76.1494 83.804 76.2694 83.876V90.32C76.1134 90.212 75.8674 90.104 75.5314 89.996C75.1954 89.876 74.7214 89.816 74.1094 89.816C73.1494 89.816 72.3394 89.96 71.6794 90.248C71.0314 90.524 70.5034 90.848 70.0954 91.22C69.6994 91.592 69.3934 91.916 69.1774 92.192ZM63.0574 104V83.948H68.7454L69.0694 87.512L69.5734 88.052V104H63.0574ZM79.9358 104V83.948H85.8758L86.0198 86.108C86.4758 85.736 87.0458 85.364 87.7298 84.992C88.4258 84.62 89.1878 84.308 90.0158 84.056C90.8438 83.804 91.6958 83.672 92.5718 83.66C93.9038 83.624 95.0198 83.846 95.9198 84.326C96.8198 84.806 97.4918 85.616 97.9358 86.756C98.3918 87.884 98.6198 89.408 98.6198 91.328V104H92.1398V92.552C92.1398 91.58 92.0618 90.818 91.9058 90.266C91.7498 89.714 91.4918 89.324 91.1318 89.096C90.7718 88.868 90.2798 88.76 89.6558 88.772C89.1878 88.772 88.6418 88.88 88.0178 89.096C87.4058 89.312 86.8718 89.636 86.4158 90.068V104H79.9358ZM98.3678 90.212L97.2878 86.216C97.5998 85.928 98.0918 85.58 98.7638 85.172C99.4358 84.764 100.24 84.41 101.176 84.11C102.124 83.798 103.156 83.648 104.272 83.66C105.616 83.648 106.768 83.876 107.728 84.344C108.688 84.812 109.426 85.61 109.942 86.738C110.458 87.866 110.716 89.408 110.716 91.364V104H104.2V92.516C104.2 91.544 104.122 90.788 103.966 90.248C103.81 89.696 103.546 89.312 103.174 89.096C102.814 88.868 102.316 88.76 101.68 88.772C100.996 88.772 100.354 88.934 99.7538 89.258C99.1538 89.582 98.6918 89.9 98.3678 90.212ZM135.239 83.948L121.703 98.528L121.883 97.196L121.955 100.688V104H115.547V92.084V74.804H121.955V85.856L121.667 93.236L120.911 92.336L127.823 83.948H135.239ZM123.503 95.612L127.751 91.112L135.707 104H128.471L123.503 95.612ZM138.016 104V83.948H144.532V104H138.016ZM140.968 81.536C139.924 81.536 139.06 81.224 138.376 80.6C137.704 79.964 137.368 79.16 137.368 78.188C137.368 77.528 137.548 76.922 137.908 76.37C138.268 75.818 138.742 75.38 139.33 75.056C139.93 74.72 140.584 74.552 141.292 74.552C142.36 74.552 143.218 74.864 143.866 75.488C144.526 76.1 144.856 76.904 144.856 77.9C144.856 78.884 144.478 79.736 143.722 80.456C142.966 81.176 142.048 81.536 140.968 81.536ZM156.235 104.288C154.795 104.288 153.643 104.048 152.779 103.568C151.927 103.088 151.309 102.368 150.925 101.408C150.553 100.436 150.367 99.224 150.367 97.772V88.232H148.063V84.776C148.951 84.524 149.683 84.266 150.259 84.002C150.835 83.726 151.255 83.312 151.519 82.76C151.651 82.484 151.795 82.154 151.951 81.77C152.107 81.386 152.269 80.984 152.437 80.564C152.605 80.144 152.767 79.748 152.923 79.376H156.883V83.948H162.067V88.232H156.883V95.36C156.883 96.608 156.949 97.52 157.081 98.096C157.225 98.672 157.465 99.038 157.801 99.194C158.137 99.35 158.599 99.428 159.187 99.428C159.487 99.428 159.829 99.392 160.213 99.32C160.597 99.236 160.963 99.134 161.311 99.014C161.659 98.894 161.935 98.768 162.139 98.636L162.895 102.236C162.583 102.548 162.085 102.866 161.401 103.19C160.729 103.502 159.943 103.766 159.043 103.982C158.143 104.186 157.207 104.288 156.235 104.288Z" fill="#1F1C3B"/>
</svg>
