<svg width="69" height="69" viewBox="0 0 69 69" fill="none" xmlns="http://www.w3.org/2000/svg">
<circle cx="34.5" cy="34.5" r="34.5" fill="#1F1C3B"/>
<path d="M44.0974 39.5537C45.0152 37.9638 44.4705 35.9309 42.8807 35.013C41.2908 34.0951 39.2579 34.6398 38.34 36.2297L29.2 52.0606C28.2821 53.6505 28.8268 55.6834 30.4167 56.6013C32.0065 57.5192 34.0395 56.9745 34.9574 55.3846L44.0974 39.5537Z" fill="#F6005B"/>
<path d="M36.7123 35.8407C37.6302 34.2508 37.0855 32.2179 35.4957 31.3C33.9058 30.3821 31.8729 30.9268 30.955 32.5167L30.1245 33.9551C29.2066 35.545 29.7513 37.5779 31.3412 38.4958C32.931 39.4137 34.9639 38.869 35.8818 37.2791L36.7123 35.8407Z" fill="#F6005B"/>
<path d="M38.5593 16.2027C39.4772 14.6128 38.9325 12.5799 37.3427 11.662C35.7528 10.7441 33.7199 11.2888 32.802 12.8787L23.662 28.7096C22.7441 30.2995 23.2888 32.3324 24.8787 33.2503C26.4685 34.1682 28.5014 33.6235 29.4193 32.0336L38.5593 16.2027Z" fill="#F6005B"/>
</svg>
